<?xml version="1.0" encoding="utf-8"?>
<!-- Generator: Adobe Illustrator 23.0.2, SVG Export Plug-In . SVG Version: 6.00 Build 0)  -->
<svg version="1.1" xmlns="http://www.w3.org/2000/svg" xmlns:xlink="http://www.w3.org/1999/xlink" x="0px" y="0px"
	 viewBox="0 0 155.4 144.67" style="enable-background:new 0 0 155.4 144.67;" xml:space="preserve">
<style type="text/css">
	.st0{display:none;}
	.st1{display:inline;fill:#FFF4EC;}
	.st2{display:inline;fill:#5E463C;}
	.st3{fill:#5E463C;}
	.st4{font-family:'ImprintMT-Shadow';}
	.st5{font-size:19.9972px;}
	.st6{fill:none;}
	.st7{fill:#7F7C7C;}
</style>
<g id="background" class="st0">
	<rect x="-187.93" y="-108.34" class="st1" width="500" height="500"/>
</g>
<g id="objects">
	<g class="st0">
		<path class="st2" d="M54.07,137.48c-30.13,7.29-28.4-12.89-17.14-13.63c11.27-0.75,23.57,10.97,38.28,15.55
			c14.72,4.57,26.26-1.45,30.33-12.37c4.07-10.92-0.9-24.16-16.52-24.1c-6.74,0.03-11.53,2.7-14.79,5.73
			c-2.34-4.54-12.88-22-32.29-11.46c-10.56,5.73-11.27,19.76-11.27,19.76s5.99-14.64,18.86-15.24c5.49-0.26,9.66,0.81,12.65,2.13
			c2.9,1.32,9.29,5.16,6.54,12.36c-0.31,0.66-0.45,1.06-0.45,1.06l0.12-0.14c1.08-1.24,9.8-10.62,23.56-7.45
			c14.72,3.4,10.59,23.06-2.22,24.54c-12.81,1.47-18.9-6.11-38.11-15.22c-19.22-9.11-45.37,10.92-29.48,21.21
			C37.5,150.13,54.07,137.48,54.07,137.48z"/>
		<path class="st2" d="M73.3,187.13c21.5-4.71,26.29-12.08,26.29-12.08s-19.93,5.34-40.11,6.84c-20.18,1.5-22.92-0.74-22.92-0.74
			s0.59-2.65,1.14-6.61c4.92,0.45,16.81,1.19,29.27-0.53c16.32-2.26,20.85-4.6,20.85-4.6s-23.41,1.21-36.37,0.25
			c-6.94-0.52-10.88-1.28-13.05-1.87c0.56-8.06,0.18-17.89-3.89-23.79c0,0,0.47,18.72-2.51,32.08c-2.98,13.36-2.98,13.36-2.98,13.36
			S51.8,191.83,73.3,187.13z"/>
		<path class="st2" d="M91.11,173.25c0,0,11.46-19.43,0.15-33.1c0,0,1.06,19.81,0.52,25.72C91.24,171.77,91.11,173.25,91.11,173.25z
			"/>
	</g>
	<g class="st0">
		<path class="st2" d="M203.18,137.43c-6.77,4.93-12.93,4.72-18.27,4.93c-5.34,0.21-15.81-6.78-8.21-18.07
			c7.6-11.29,20.33-8.42,31-9.03c10.68-0.62,18.27-6.36,27.31-9.65c9.03-3.29,18.48,0.62,20.53,9.65c2.05,9.03-8.01,17.66-15.5,19.3
			c-7.49,1.64-10.98,8.01-10.98,8.01c4.11-3.9,10.88-4.52,20.33-6.78c9.44-2.26,17.04-12.11,11.91-24.64
			c-5.13-12.52-19.91-15.19-31-9.85c-11.09,5.34-15.81,7.8-36.54,8.01c-20.74,0.2-38.6,25.66-20.53,33.26
			C191.28,150.16,203.18,137.43,203.18,137.43z"/>
		<path class="st2" d="M217.76,163.91c14.37-1.03,23.81,0.82,23.81,0.82s-11.65-6.06-24.38-5.44c-12.73,0.62-23.36,5.71-23.36,5.71
			s-0.51-11.72-6.88-20.13c0,0,1.23,12.27,1.44,18.84c0.21,6.57-0.72,10.88-0.72,10.88S203.39,164.94,217.76,163.91z"/>
		<path class="st2" d="M247.94,176.64c0,0-1.73-8.83-2.59-16.22c-0.87-7.39-0.05-23.71-0.05-23.71c-5.4,11.5-2.97,33.98-2.97,33.98
			s-6.42-0.69-19.84,0.1c-16.4,0.97-31.25,11.47-32.72,12.53c0.86-0.59,6.27-3.89,24.27-6.68
			C233.9,173.56,247.94,176.64,247.94,176.64z"/>
		<path class="st2" d="M189.76,183.32c-0.09,0.06-0.13,0.09-0.13,0.09S189.68,183.38,189.76,183.32z"/>
	</g>
	<g class="st0">
		<path class="st2" d="M-55.73,242.65c0,0,0,0-2.3-5.11s-12.89-14.96-26.46-12.05c-3.88,0.83-10.77,4.18-15.27,9.6
			c-6.7-2.37-14.78-2.51-22.06,2.48c-14.63,10.04-6.63,20.65,1.5,34.05c10,16.48,7.72,40.17,7.72,40.17
			c12.03-25.98-7.34-51.27-8.32-55.88c-2.57-12.06,8.4-15.93,19.36-15.22c9.73,0.63,16.04,6.78,16.04,6.78
			c-0.72-3.48-4.88-7.89-10.64-10.82c4.68-3.33,13.56-7.89,22.62-3.21c13.2,6.83,15.01,16,15.01,16s18.33-4.57,18.26,12.05
			c-0.07,16.63-21.99,11.94-21.99,11.94c15.75,8.5,34.5-2.32,28.65-17.93C-39.47,239.88-55.73,242.65-55.73,242.65z"/>
		<path class="st2" d="M-45.19,312.51c0,0-9.78-24.85-9.61-36.45c0,0-3.19,12.93-1.35,21.48c1.84,8.55,1.84,8.55,1.84,8.55
			s-12.38-2.81-36.76,3.16c-21.87,5.36-23.42,8.66-23.42,8.66l2.52,12.89c0,0,4.01-1.14,5.93-1.63c0,0,17.76-6.01,35.13-8.73
			c10.41-1.63,17.04-1.9,20.68-1.85c-5.48-0.23-16.92-0.4-31.47,1.09c-15.52,1.59-23.27,3.95-26.15,5.02
			c-0.4-1.3-0.82-2.92-1.22-4.92c7.74-3.13,21.79-6.43,31.6-7.3C-63.16,311.2-45.19,312.51-45.19,312.51z"/>
		<path class="st2" d="M-50.24,318.59c2.29,0.1,3.54,0.2,3.54,0.2S-47.8,318.62-50.24,318.59z"/>
		<path class="st2" d="M-92.32,272.28c0,0,3.33,5.37,4.54,16.3c1.21,10.93,0.67,14.04,0.67,14.04S-78.77,283.3-92.32,272.28z"/>
		<path class="st2" d="M-70.08,275.63c-2.64-11.94-11.24-16.27-11.24-16.27s6.25,10.51,8.26,22.31c2.01,11.8,0.98,21.58,0.98,21.58
			S-67.45,287.56-70.08,275.63z"/>
	</g>
	<g class="st0">
		<path class="st2" d="M-95.78,183.97c0,0,3.08-0.5,13.37-3.12c10.29-2.62,36.37-0.73,36.37-0.73s-13.96-5.76-24.6-5.23
			c-10.64,0.53-19.07,5.2-19.07,5.2L-95.78,183.97z"/>
		<path class="st2" d="M-105.99,126.18c0,0.01,3.34,33.33,2.45,50.46c-0.89,17.13-2.98,23.97-2.98,23.97s16.61-7.07,32.64-9.46
			c16.03-2.39,20.9-1.87,20.9-1.87s-12.51-3.63-26.59-1.99c-14.09,1.64-18.42,4.5-18.42,4.5S-92.2,152.15-105.99,126.18
			c14.4,1.39,40.57-4.55,49.06,6.35c9.22,11.84,9.12,42.47,9.12,42.47c5.22-29.56,1.82-42.35-6.91-49.19
			c-8.72-6.84-26.53-5.72-37.12-5.67c-10.1,0.05-21.02-2.58-18.34-9.24c2.68-6.66,10.41-8.67,15.97-9.33
			c22.04-2.6,25.32-8.38,27.66-11.05c2.28-2.59,7.05-2.52,11.87,1.21c5.35,4.14,7.58,13.02,6.28,23.55
			c-1.31,10.53,1.86,16.48,1.86,16.48c-0.59-13.44,8.49-18.66,3.06-34.56c-5.43-15.89-22.84-17.65-28.93-10.41
			c-8.55,10.17-23.82,3-38.49,11.88c-14.67,8.87-11.71,23.9,1.48,26.97C-108.4,125.89-107.23,126.06-105.99,126.18z"/>
		<path class="st2" d="M-80.28,148.34c-1.46-13.14-7.56-16.98-7.56-16.98s3.76,12.8,4.68,23.61c0.92,10.81-0.28,18.83-0.28,18.83
			S-78.82,161.48-80.28,148.34z"/>
		<path class="st2" d="M-63.27,155.36c0.32-10.83-6.72-17.05-6.72-17.05s3.27,10.07,3.69,19.99c0.41,9.92-0.75,14.3-0.75,14.3
			S-63.58,166.2-63.27,155.36z"/>
	</g>
	<g class="st0">
		<path class="st2" d="M98.23,272.38c-6.33,11.76-0.15,44.79-0.15,44.79s-10.54-0.79-27.51,2.27
			c-16.97,3.06-24.36,11.59-24.36,11.59s8.25-4.4,21.98-7.79c13.73-3.38,36.63-1.64,36.63-1.64s-1.51-7.9-3.44-16.15
			C99.45,297.19,98.23,272.38,98.23,272.38z"/>
		<path class="st2" d="M60.44,268.54c0,0,4.85,9.2,5.77,19.17c0.92,9.97,0.17,13.24,0.17,13.24S74.4,280,60.44,268.54z"/>
		<path class="st2" d="M76.41,269.43c0,0,4.84,8.53,5.75,17.77c0.9,9.24,0.15,12.28,0.15,12.28S90.36,280.05,76.41,269.43z"/>
		<path class="st2" d="M44.98,322.35c0,0,9.41-5.36,21.82-7.85c12.41-2.49,24.27-1.16,24.27-1.16s-10.9-3.51-22.74-2.48
			c-11.84,1.03-15.77,2.52-15.77,2.52s-0.1-1.61-0.35-4.15c3.59-0.79,10.67-2.29,14.58-2.56c5.38-0.38,11.96,0.52,11.96,0.52
			s-6.48-3.8-18.61-2.78c-4.02,0.34-6.63,0.74-8.34,1.14c-0.93-7.88-3.24-20.92-6.54-27.4c-4.43-8.71-6.77-10.79-16.66-11.78
			c-9.88-0.98-10.88-13.12-3.63-18.28c7.24-5.16,21.49-6.21,28.67-0.66c7.18,5.55,6.85,11.54,5.77,19.17c0,0,7.54-12.78-1.26-21.57
			c-8.8-8.79-32.01-10.5-42.11,3.21c-10.1,13.71,2.76,24.23,11.45,24.14c8.69-0.09,10.57,3.45,14.22,11.21
			c3.65,7.77,4.75,17.18,4.45,24.08C45.87,314.54,44.98,322.35,44.98,322.35z"/>
		<path class="st2" d="M85.76,272.38c-0.64-0.25-0.99-0.45-0.99-0.45S85.12,272.16,85.76,272.38z"/>
		<path class="st2" d="M101.92,238.3c-6.19-3.15-13.46-3.58-20.35-1.97C77.41,225.7,68.65,224,68.65,224
			c-4.84-1.64-11.13-2.25-17.22-0.25c-10.58,3.47-13.27,12.16-13.27,12.16c2.38-4.03,9.59-8.12,20.52-8.87
			c3.37-0.23,7.86,0.78,10.5,1.87c4.61,1.99,6.89,5.81,8.23,8.58c-6.68,2.04-10.74,5.49-11.72,10.16c0,0,7.42-8.28,23.03-6.81
			c15.62,1.47,20.12,14.66,11.56,25.09c-6.64,8.09-12.33,7.25-14.54,6.46c2.48,0.97,9.38,2.78,17.94-2.64
			C114.47,262.92,115.04,244.98,101.92,238.3z"/>
	</g>
	<g class="st0">
		<path class="st2" d="M-110.53,33.82c-1.28,17.44-1.28,17.44-1.28,17.44s29.22-13.73,47.55-13.01c14.13,0.55,16.55,2.62,16.55,2.62
			s-4.46-6.9-27.83-6.75c-21.07,0.13-27.88,4.07-27.88,4.07s-0.63-27.57-9.18-32.24c2.07-0.23,4.02-0.64,5.83-1.16l0,0
			C-92.53,1.03-84.38-9.48-84.16-9.76c4.66,2.62,9.64,5.95,14.88,10.08c18.42,14.51,35.1,8.34,39.32-1
			c4.76-10.53-0.65-28.94-26.28-32.36c-10.93-1.46-20.24-0.95-27.33,0.1c0,0-0.01,0-0.01,0s-15.18,1.75-29.73,9.42
			c-15.98,5.2-30.03,23.53-12.99,28.3c4.97,1.39,9.54,1.62,13.62,1.16C-113.09,6.38-109.3,17.06-110.53,33.82z M-75.56-30.53
			c4.96,0.2,10.55,0.72,16.63,1.77c23.47,4.02,27.95,18.52,18.63,27.71c-9.31,9.18-20.67-0.76-30-8.19
			c-9.33-7.43-15.23-14-33.11-15.58c-3.21-0.28-6.59,0.23-9.89,1.31C-112.61-23.83-95.98-31.32-75.56-30.53z M-119.76,0.49
			c-13.03-0.18-1.37-14.26,7.75-16.96c6.43-1.9,16.11,0.11,27.85,6.71c-4.79,4.51-9.27,6.45-11.98,7.27
			C-101.5-1.25-111.03,0.61-119.76,0.49z"/>
		<path class="st2" d="M-80.91,23.2c-11.16,2-14.34,5.4-14.34,5.4s19.54-3.18,29.5-2.23c9.96,0.95,16.71,2.85,16.71,2.85
			l-1.66-18.34c0,0-1.63,8.72-2.12,12.2C-52.82,23.08-69.75,21.2-80.91,23.2z"/>
	</g>
	<g>
		<path class="st3" d="M26.67,65.02c-10.75-6.12-1.5-20.06,9.32-22.46c10.81-2.4,19.43,12,19.43,12s0-7.21-4.49-11.4
			c-4.49-4.19-10.78-7.26-23.06-4.27c-12.28,2.99-21.86,25.23-5.09,30.72c16.77,5.49,25.45-3.19,25.45-3.19S37.42,71.14,26.67,65.02
			z"/>
		<path class="st3" d="M107.82,44.06c-3.79-5.39-12.58-7.93-21.56-6.36c0,0-3.14-17.03-21.11-16.04
			c-17.97,1-16.82,17.01-16.82,17.01s3.94-9.28,14.42-10.78c10.48-1.5,18.26,3.44,18.56,11.08c0.3,7.63-1.5,9.58-1.5,9.58
			s7.94-9.43,17.82-5.39c0,0,8.79,2.3,6.79,12.88c-2,10.58-9.18,12.8-21.56,14.17c-12.38,1.37-19.96-1.2-19.96-1.2
			s9.2,6.36,24.32,4.08c-1.15,2.62-2.93,8.1-1.36,14.5c2.2,8.98,6.59,12.58,6.59,12.58s-1.2-2.99-2.6-9.88
			c-1.09-5.39-1.58-13.9-1.73-17.34c2.01-0.34,4.12-0.83,6.33-1.52C113.8,65.42,111.61,49.45,107.82,44.06z"/>
		<path class="st3" d="M37.35,109.94c0,0,12.38,3.79,31.14,1.4c18.76-2.4,25.95-6.39,25.95-6.39s-17.17,1.1-28.54,1.5
			c-11.38,0.4-22.76-2.2-22.76-2.2s3.47-24.17-5.79-32.81c0,0,1.8,14.95,1.4,24.93C38.35,106.34,37.35,109.94,37.35,109.94z"/>
		<path class="st3" d="M38.15,115.13c0,0,11.38,8.74,31.24,5.54c19.86-3.19,27.64-10.93,27.64-10.93s-7.79,5.99-27.35,7.19
			C50.13,118.12,38.15,115.13,38.15,115.13z"/>
	</g>
	<g class="st0">
		<path class="st2" d="M44.06-6.02c17.31-6.6,6.73-24.07-2.73-23.26c-7.58,0.65-7.29,7.18-7.29,7.18s1.53-0.88,3.04-1.58
			c2.43-1.14,10.63-0.43,9.11,7.9c-1.52,8.33-22.17,9.61-22.47-3.95c-0.3-13.56,13.97-21.03,31.58-17.58
			c17.61,3.45,19.74,14.64,19.74,14.64s-1.82-13.5-17-18.95c-15.18-5.46-36.74,3.39-39.48,16.05C15.82-12.92,26.75,0.58,44.06-6.02z
			"/>
		<path class="st2" d="M85.43-39.73c0.17,0.01,0.33,0.03,0.5,0.04c0.18,0.02,0.35,0.03,0.53,0.05c0.03,0,0.06,0.01,0.09,0.01
			c3.4,0.38,6.65,1.37,8.92,3.45c7.29,6.7,5.26,18.57-4.45,20.67c-9.72,2.11-23.08-2.68-23.08-2.68s6.81,7.27,18.47,7.44
			c2.98,0.04,6.28-0.37,9.87-1.5c17.61-5.55,8.5-28.74-5.26-31.02c-2.88-0.48-5.43-0.52-7.68-0.31c-0.02-0.01-0.03-0.01-0.03-0.01
			s-10.65,0.72-16.48,7c0,0,2.66-1.35,6.92-2.32C76.58-39.44,81.05-40.04,85.43-39.73z"/>
		<path class="st2" d="M86.98,22.97c-1.01,10.34-1.12,11.88-1.12,11.88s-9.91-1.02-19.33-0.56c-9.41,0.46-14.58,2.07-14.58,2.07
			s19.03,0,31.58,3.55c7.3,2.06,9.56,3.01,9.56,3.01s3.35-33-6.67-53.67C86.41-10.74,87.99,12.64,86.98,22.97z"/>
		<path class="st2" d="M35.05,55.71c0,0,19.44-6.32,32.9-7.46c13.46-1.15,28.65,2.68,28.65,2.68s-13.67-9.38-33.1-7.27
			c-16.34,1.77-20.65,2.3-20.65,2.3s6.38-29.66-4.86-50.33c0,0,1.01,19.42,0.4,35.21C37.78,46.62,35.05,55.71,35.05,55.71z"/>
		<path class="st2" d="M47.5-2.87c0,0,3.64,10.38,4.45,20.6c0.81,10.22,0,13.85,0,13.85S62.48,10.15,47.5-2.87z"/>
		<path class="st2" d="M63.92-4.29c0,0,3.64,10.38,4.45,20.6c0.81,10.22,0,13.85,0,13.85S78.9,8.73,63.92-4.29z"/>
	</g>
	<g class="st0">
		<path class="st2" d="M231.49,269.34c-1.49-18.99-8.16-26.03-8.16-26.03s5.25,21.78,5.71,37.79c0.46,16-0.48,21.38-0.48,21.38
			S232.98,288.32,231.49,269.34z"/>
		<path class="st2" d="M218.88,272.17c-1.5-18.2-8.18-24.95-8.18-24.95s5.27,20.87,5.75,36.22c0.48,15.34-0.46,20.5-0.46,20.5
			S220.39,290.37,218.88,272.17z"/>
		<path class="st2" d="M207.23,273.63c-1.51-18.2-8.19-24.95-8.19-24.95s5.27,20.88,5.75,36.22c0.48,15.34-0.46,20.5-0.46,20.5
			S208.73,291.83,207.23,273.63z"/>
		<path class="st2" d="M198.31,322.46c0,0-0.01-2.36-0.08-6.18c0,0,16.16-3.25,28.51-2.46c12.36,0.79,19.83,3.59,19.83,3.59
			s-17.74-9.96-48.43-5.58c-0.15-6.36-0.43-14.83-0.95-23.22c-1.03-16.77-11.64-49.26-11.64-49.26s1.75-1.21,8.82-4.86
			c13.06-6.76,38.36-8.29,38.36-8.29l0.69,5.88c0,0-10.75,1.09-21.64,4.16c-10.89,3.08-20.72,10.61-20.72,10.61
			s11.04-5.26,24.34-7.57c7.87-1.36,14.81-1.89,19.17-2.1c3.29,21.89,9.52,68.2,9.52,68.2c-0.22-24.67-5.7-83.86-5.7-83.86
			s-9.12-0.77-27.03,2.37c-17.91,3.14-33.38,14.11-33.38,14.11s6.69,10.05,11.18,36.09c4.49,26.05,0.48,56.15,0.48,56.15
			s8.15-2.99,24.18-5.17c16.03-2.17,36.89,1.01,36.89,1.01C222.84,313.58,198.31,322.46,198.31,322.46z"/>
	</g>
	<text transform="matrix(1.11 -0.2184 0.1931 0.9812 28.2597 136.429)" class="st4 st5">FOODIE</text>
	<rect x="28.26" y="120.43" class="st6" width="78.67" height="18.67"/>
</g>
<g id="designed_by_freepik">
	<g>
		<g>
			<path class="st7" d="M-12.09,373.67v-0.17c-0.22,0.26-0.44,0.47-0.66,0.63c-0.22,0.16-0.45,0.28-0.71,0.37
				c-0.25,0.08-0.53,0.13-0.83,0.13c-0.4,0-0.77-0.08-1.11-0.25c-0.34-0.17-0.63-0.41-0.88-0.72c-0.25-0.31-0.44-0.68-0.57-1.11
				c-0.13-0.42-0.19-0.88-0.19-1.37c0-1.04,0.25-1.86,0.76-2.44c0.51-0.58,1.18-0.87,2.01-0.87c0.48,0,0.89,0.08,1.21,0.25
				c0.33,0.17,0.65,0.42,0.96,0.76v-2.46c0-0.34,0.07-0.6,0.21-0.78c0.14-0.17,0.33-0.26,0.58-0.26c0.25,0,0.45,0.08,0.58,0.24
				c0.14,0.16,0.21,0.4,0.21,0.71v7.35c0,0.32-0.07,0.56-0.22,0.71c-0.15,0.16-0.34,0.24-0.57,0.24c-0.23,0-0.42-0.08-0.56-0.25
				C-12.02,374.21-12.09,373.97-12.09,373.67z M-15.37,371.22c0,0.45,0.07,0.84,0.21,1.15c0.14,0.32,0.33,0.56,0.58,0.72
				c0.24,0.16,0.51,0.24,0.8,0.24c0.29,0,0.56-0.08,0.8-0.23c0.24-0.15,0.44-0.39,0.58-0.7c0.14-0.32,0.22-0.71,0.22-1.18
				c0-0.44-0.07-0.83-0.22-1.15c-0.14-0.32-0.34-0.56-0.59-0.73c-0.25-0.17-0.52-0.25-0.81-0.25c-0.31,0-0.58,0.09-0.82,0.26
				c-0.24,0.17-0.43,0.42-0.56,0.74C-15.3,370.42-15.37,370.79-15.37,371.22z"/>
			<path class="st7" d="M-4.74,371.64H-8c0,0.38,0.08,0.71,0.23,1c0.15,0.29,0.35,0.51,0.59,0.65c0.25,0.15,0.52,0.22,0.82,0.22
				c0.2,0,0.38-0.02,0.55-0.07c0.17-0.05,0.32-0.12,0.48-0.22c0.15-0.1,0.3-0.21,0.43-0.32c0.13-0.11,0.3-0.27,0.51-0.46
				c0.09-0.07,0.21-0.11,0.37-0.11c0.17,0,0.31,0.05,0.41,0.14c0.11,0.09,0.16,0.23,0.16,0.4c0,0.15-0.06,0.33-0.18,0.53
				c-0.12,0.2-0.3,0.4-0.53,0.58c-0.24,0.19-0.54,0.34-0.9,0.46c-0.36,0.12-0.77,0.18-1.24,0.18c-1.07,0-1.9-0.31-2.5-0.92
				c-0.59-0.61-0.89-1.44-0.89-2.49c0-0.49,0.07-0.95,0.22-1.37c0.15-0.42,0.36-0.78,0.64-1.08c0.28-0.3,0.63-0.53,1.04-0.69
				c0.41-0.16,0.87-0.24,1.37-0.24c0.65,0,1.21,0.14,1.68,0.41c0.47,0.27,0.82,0.63,1.05,1.06c0.23,0.44,0.35,0.88,0.35,1.33
				c0,0.42-0.12,0.69-0.36,0.82C-3.96,371.58-4.3,371.64-4.74,371.64z M-8,370.69h3.02c-0.04-0.57-0.19-1-0.46-1.28
				c-0.27-0.28-0.62-0.42-1.05-0.42c-0.41,0-0.76,0.14-1.02,0.43C-7.78,369.71-7.94,370.13-8,370.69z"/>
			<path class="st7" d="M2.86,372.44c0,0.46-0.11,0.85-0.34,1.18c-0.22,0.33-0.55,0.58-0.99,0.75c-0.44,0.17-0.97,0.25-1.6,0.25
				c-0.6,0-1.11-0.09-1.54-0.28c-0.43-0.18-0.74-0.41-0.95-0.69c-0.2-0.28-0.31-0.55-0.31-0.83c0-0.18,0.06-0.34,0.2-0.47
				c0.13-0.13,0.3-0.2,0.5-0.2c0.17,0,0.31,0.04,0.4,0.13c0.09,0.08,0.18,0.21,0.27,0.36c0.17,0.3,0.38,0.52,0.61,0.67
				c0.24,0.15,0.56,0.22,0.97,0.22c0.33,0,0.61-0.07,0.82-0.22c0.21-0.15,0.32-0.32,0.32-0.51c0-0.29-0.11-0.51-0.33-0.64
				c-0.22-0.13-0.59-0.26-1.1-0.39c-0.57-0.14-1.04-0.29-1.4-0.45c-0.36-0.16-0.65-0.36-0.86-0.62c-0.22-0.26-0.32-0.57-0.32-0.95
				c0-0.33,0.1-0.65,0.3-0.95c0.2-0.3,0.49-0.53,0.88-0.71c0.39-0.18,0.86-0.27,1.41-0.27c0.43,0,0.82,0.04,1.16,0.13
				c0.34,0.09,0.63,0.21,0.86,0.36c0.23,0.15,0.41,0.32,0.52,0.5c0.12,0.18,0.18,0.36,0.18,0.54c0,0.19-0.06,0.35-0.19,0.47
				c-0.13,0.12-0.31,0.18-0.55,0.18c-0.17,0-0.32-0.05-0.44-0.15c-0.12-0.1-0.26-0.24-0.41-0.44c-0.13-0.16-0.27-0.29-0.45-0.39
				c-0.17-0.1-0.4-0.15-0.7-0.15c-0.3,0-0.55,0.06-0.75,0.19c-0.2,0.13-0.3,0.29-0.3,0.48c0,0.18,0.07,0.32,0.22,0.43
				c0.15,0.11,0.34,0.21,0.59,0.28c0.25,0.07,0.59,0.16,1.03,0.27c0.52,0.13,0.94,0.28,1.27,0.45c0.33,0.17,0.58,0.38,0.75,0.62
				C2.77,371.86,2.86,372.13,2.86,372.44z"/>
			<path class="st7" d="M4.56,367.07c-0.23,0-0.43-0.07-0.6-0.21c-0.16-0.14-0.25-0.34-0.25-0.6c0-0.24,0.08-0.43,0.25-0.58
				c0.17-0.15,0.37-0.23,0.59-0.23c0.22,0,0.41,0.07,0.57,0.21c0.17,0.14,0.25,0.34,0.25,0.6c0,0.26-0.08,0.46-0.24,0.6
				S4.78,367.07,4.56,367.07z M5.39,368.79v4.82c0,0.33-0.08,0.59-0.24,0.76c-0.16,0.17-0.36,0.26-0.6,0.26
				c-0.24,0-0.44-0.09-0.6-0.26c-0.15-0.17-0.23-0.43-0.23-0.75v-4.77c0-0.33,0.08-0.58,0.23-0.75c0.15-0.17,0.35-0.25,0.6-0.25
				c0.24,0,0.45,0.08,0.6,0.25C5.31,368.26,5.39,368.49,5.39,368.79z"/>
			<path class="st7" d="M12.69,369.06v4.84c0,0.55-0.06,1.03-0.18,1.43c-0.12,0.4-0.31,0.73-0.57,0.99
				c-0.26,0.26-0.6,0.45-1.02,0.58c-0.42,0.13-0.95,0.19-1.57,0.19c-0.57,0-1.09-0.08-1.54-0.24c-0.45-0.16-0.8-0.37-1.04-0.62
				c-0.24-0.25-0.37-0.52-0.37-0.79c0-0.2,0.07-0.37,0.21-0.5c0.14-0.13,0.31-0.19,0.5-0.19c0.24,0,0.46,0.11,0.64,0.32
				c0.09,0.11,0.18,0.22,0.28,0.33c0.1,0.11,0.2,0.21,0.32,0.29c0.12,0.08,0.26,0.14,0.42,0.18c0.16,0.04,0.35,0.06,0.56,0.06
				c0.43,0,0.77-0.06,1-0.18c0.24-0.12,0.41-0.29,0.5-0.5c0.1-0.21,0.15-0.45,0.17-0.69c0.02-0.25,0.03-0.64,0.04-1.19
				c-0.26,0.36-0.55,0.63-0.89,0.82c-0.34,0.19-0.74,0.28-1.2,0.28c-0.56,0-1.05-0.14-1.46-0.43c-0.42-0.29-0.74-0.68-0.96-1.2
				c-0.22-0.51-0.34-1.1-0.34-1.78c0-0.5,0.07-0.95,0.2-1.36c0.14-0.4,0.33-0.74,0.58-1.02c0.25-0.28,0.54-0.49,0.87-0.63
				c0.33-0.14,0.69-0.21,1.09-0.21c0.47,0,0.88,0.09,1.23,0.27c0.35,0.18,0.67,0.47,0.96,0.85v-0.23c0-0.29,0.07-0.51,0.21-0.67
				c0.14-0.16,0.33-0.24,0.55-0.24c0.32,0,0.53,0.11,0.64,0.31C12.63,368.37,12.69,368.67,12.69,369.06z M7.86,371.18
				c0,0.68,0.15,1.19,0.44,1.53c0.29,0.35,0.68,0.52,1.15,0.52c0.28,0,0.54-0.07,0.78-0.22c0.25-0.15,0.45-0.37,0.6-0.67
				c0.15-0.3,0.23-0.66,0.23-1.09c0-0.68-0.15-1.21-0.45-1.59c-0.3-0.38-0.69-0.57-1.18-0.57c-0.48,0-0.86,0.18-1.14,0.54
				C8,369.99,7.86,370.51,7.86,371.18z"/>
			<path class="st7" d="M15.34,368.76v0.2c0.29-0.39,0.61-0.67,0.96-0.85c0.35-0.18,0.75-0.27,1.2-0.27c0.44,0,0.83,0.1,1.18,0.29
				c0.35,0.19,0.6,0.46,0.77,0.81c0.11,0.2,0.18,0.42,0.21,0.66c0.03,0.24,0.05,0.54,0.05,0.9v3.1c0,0.33-0.08,0.59-0.23,0.76
				c-0.15,0.17-0.35,0.26-0.6,0.26c-0.25,0-0.45-0.09-0.6-0.26c-0.16-0.17-0.23-0.43-0.23-0.75v-2.78c0-0.55-0.08-0.97-0.23-1.26
				c-0.15-0.29-0.46-0.44-0.91-0.44c-0.3,0-0.57,0.09-0.81,0.27c-0.24,0.18-0.42,0.42-0.54,0.73c-0.08,0.25-0.12,0.71-0.12,1.39
				v2.09c0,0.34-0.08,0.59-0.23,0.76c-0.16,0.17-0.36,0.25-0.61,0.25c-0.24,0-0.44-0.09-0.59-0.26c-0.15-0.17-0.23-0.43-0.23-0.75
				v-4.82c0-0.32,0.07-0.55,0.21-0.71c0.14-0.16,0.33-0.23,0.57-0.23c0.15,0,0.28,0.03,0.4,0.1c0.12,0.07,0.21,0.17,0.28,0.31
				C15.3,368.4,15.34,368.56,15.34,368.76z"/>
			<path class="st7" d="M25.48,371.64h-3.26c0,0.38,0.08,0.71,0.23,1c0.15,0.29,0.35,0.51,0.59,0.65c0.25,0.15,0.52,0.22,0.81,0.22
				c0.2,0,0.38-0.02,0.55-0.07c0.16-0.05,0.32-0.12,0.48-0.22c0.15-0.1,0.3-0.21,0.43-0.32c0.13-0.11,0.3-0.27,0.51-0.46
				c0.09-0.07,0.21-0.11,0.37-0.11c0.17,0,0.31,0.05,0.41,0.14c0.11,0.09,0.16,0.23,0.16,0.4c0,0.15-0.06,0.33-0.18,0.53
				c-0.12,0.2-0.3,0.4-0.53,0.58c-0.24,0.19-0.54,0.34-0.9,0.46c-0.36,0.12-0.77,0.18-1.24,0.18c-1.07,0-1.9-0.31-2.5-0.92
				c-0.59-0.61-0.89-1.44-0.89-2.49c0-0.49,0.07-0.95,0.22-1.37c0.15-0.42,0.36-0.78,0.64-1.08c0.28-0.3,0.63-0.53,1.04-0.69
				c0.41-0.16,0.87-0.24,1.37-0.24c0.65,0,1.21,0.14,1.68,0.41c0.47,0.27,0.82,0.63,1.05,1.06c0.23,0.44,0.35,0.88,0.35,1.33
				c0,0.42-0.12,0.69-0.36,0.82C26.25,371.58,25.92,371.64,25.48,371.64z M22.22,370.69h3.02c-0.04-0.57-0.19-1-0.46-1.28
				c-0.27-0.28-0.62-0.42-1.05-0.42c-0.42,0-0.76,0.14-1.02,0.43C22.44,369.71,22.28,370.13,22.22,370.69z"/>
			<path class="st7" d="M32.28,373.67v-0.17c-0.22,0.26-0.44,0.47-0.66,0.63c-0.22,0.16-0.45,0.28-0.71,0.37
				c-0.25,0.08-0.53,0.13-0.83,0.13c-0.4,0-0.77-0.08-1.11-0.25c-0.34-0.17-0.63-0.41-0.88-0.72c-0.25-0.31-0.44-0.68-0.56-1.11
				c-0.13-0.42-0.19-0.88-0.19-1.37c0-1.04,0.25-1.86,0.76-2.44c0.51-0.58,1.18-0.87,2.01-0.87c0.48,0,0.89,0.08,1.22,0.25
				c0.33,0.17,0.65,0.42,0.96,0.76v-2.46c0-0.34,0.07-0.6,0.21-0.78c0.14-0.17,0.33-0.26,0.58-0.26c0.25,0,0.45,0.08,0.58,0.24
				c0.14,0.16,0.2,0.4,0.2,0.71v7.35c0,0.32-0.07,0.56-0.22,0.71c-0.15,0.16-0.34,0.24-0.57,0.24c-0.23,0-0.42-0.08-0.57-0.25
				C32.35,374.21,32.28,373.97,32.28,373.67z M29,371.22c0,0.45,0.07,0.84,0.21,1.15c0.14,0.32,0.33,0.56,0.58,0.72
				c0.24,0.16,0.51,0.24,0.8,0.24c0.29,0,0.56-0.08,0.8-0.23c0.24-0.15,0.44-0.39,0.58-0.7c0.14-0.32,0.22-0.71,0.22-1.18
				c0-0.44-0.07-0.83-0.22-1.15c-0.14-0.32-0.34-0.56-0.59-0.73c-0.25-0.17-0.52-0.25-0.81-0.25c-0.3,0-0.58,0.09-0.82,0.26
				c-0.24,0.17-0.43,0.42-0.56,0.74C29.06,370.42,29,370.79,29,371.22z"/>
			<path class="st7" d="M39.09,366.32v2.55c0.31-0.33,0.63-0.58,0.96-0.75c0.33-0.17,0.73-0.26,1.21-0.26
				c0.55,0,1.04,0.13,1.46,0.39c0.42,0.26,0.74,0.64,0.97,1.14c0.23,0.5,0.35,1.09,0.35,1.77c0,0.5-0.06,0.97-0.19,1.39
				c-0.13,0.42-0.31,0.79-0.56,1.1c-0.24,0.31-0.54,0.55-0.89,0.72c-0.35,0.17-0.73,0.25-1.15,0.25c-0.26,0-0.5-0.03-0.72-0.09
				c-0.23-0.06-0.42-0.14-0.58-0.24c-0.16-0.1-0.29-0.2-0.41-0.31c-0.11-0.11-0.26-0.26-0.44-0.48v0.17c0,0.31-0.08,0.55-0.23,0.71
				c-0.15,0.16-0.34,0.24-0.57,0.24c-0.24,0-0.42-0.08-0.56-0.24c-0.14-0.16-0.21-0.4-0.21-0.71v-7.28c0-0.34,0.07-0.59,0.2-0.77
				c0.14-0.17,0.33-0.26,0.57-0.26c0.26,0,0.45,0.08,0.59,0.25C39.02,365.78,39.09,366.01,39.09,366.32z M39.17,371.27
				c0,0.66,0.15,1.17,0.46,1.53c0.3,0.36,0.7,0.54,1.19,0.54c0.42,0,0.78-0.18,1.08-0.55c0.3-0.36,0.46-0.89,0.46-1.57
				c0-0.44-0.06-0.82-0.19-1.14c-0.13-0.32-0.3-0.56-0.54-0.74c-0.23-0.17-0.5-0.26-0.81-0.26c-0.32,0-0.6,0.09-0.85,0.26
				c-0.25,0.17-0.44,0.42-0.59,0.75C39.24,370.42,39.17,370.82,39.17,371.27z"/>
			<path class="st7" d="M46.19,374.83l0.15-0.37l-2.05-5.17c-0.13-0.3-0.19-0.51-0.19-0.65c0-0.14,0.04-0.27,0.11-0.4
				c0.07-0.12,0.17-0.22,0.3-0.29c0.13-0.07,0.26-0.11,0.4-0.11c0.24,0,0.42,0.08,0.54,0.23c0.12,0.15,0.23,0.37,0.32,0.66l1.41,4.1
				l1.34-3.82c0.11-0.31,0.2-0.55,0.29-0.73c0.09-0.17,0.18-0.29,0.27-0.35c0.1-0.06,0.23-0.09,0.41-0.09c0.13,0,0.25,0.03,0.36,0.1
				c0.12,0.07,0.21,0.16,0.27,0.27c0.06,0.11,0.1,0.23,0.1,0.36c-0.02,0.08-0.04,0.19-0.08,0.33c-0.04,0.14-0.08,0.29-0.13,0.43
				l-2.17,5.69c-0.19,0.5-0.37,0.89-0.55,1.18c-0.18,0.29-0.42,0.5-0.71,0.66c-0.3,0.15-0.69,0.23-1.19,0.23
				c-0.49,0-0.85-0.05-1.1-0.16c-0.25-0.11-0.37-0.3-0.37-0.58c0-0.19,0.06-0.34,0.17-0.44c0.12-0.1,0.29-0.16,0.52-0.16
				c0.09,0,0.18,0.01,0.26,0.04c0.11,0.02,0.2,0.04,0.27,0.04c0.19,0,0.34-0.03,0.45-0.09c0.11-0.06,0.21-0.16,0.3-0.3
				C45.98,375.31,46.08,375.1,46.19,374.83z"/>
		</g>
		<g>
			<path class="st7" d="M70.34,367.99h0.4v-0.5c0-0.52,0.06-0.94,0.2-1.25c0.13-0.31,0.36-0.53,0.67-0.67
				c0.32-0.14,0.75-0.21,1.3-0.21c0.98,0,1.46,0.24,1.46,0.72c0,0.15-0.05,0.29-0.16,0.4c-0.1,0.11-0.22,0.16-0.36,0.16
				c-0.06,0-0.18-0.01-0.34-0.04c-0.15-0.02-0.29-0.04-0.4-0.04c-0.3,0-0.49,0.09-0.58,0.27c-0.08,0.18-0.13,0.43-0.13,0.76v0.4
				h0.41c0.64,0,0.95,0.19,0.95,0.58c0,0.27-0.08,0.44-0.25,0.52c-0.17,0.07-0.4,0.11-0.7,0.11h-0.41v4.42
				c0,0.33-0.08,0.58-0.24,0.75c-0.16,0.17-0.36,0.26-0.61,0.26c-0.24,0-0.43-0.09-0.59-0.26c-0.16-0.17-0.23-0.42-0.23-0.75v-4.42
				h-0.46c-0.25,0-0.44-0.05-0.58-0.17c-0.13-0.11-0.2-0.26-0.2-0.44C69.5,368.18,69.78,367.99,70.34,367.99"/>
			<path class="st7" d="M75.8,372.21v1.39c0,0.34-0.09,0.59-0.24,0.76c-0.16,0.17-0.36,0.25-0.6,0.25c-0.25,0-0.44-0.08-0.6-0.26
				c-0.15-0.17-0.23-0.42-0.23-0.75v-4.64c0-0.75,0.27-1.12,0.81-1.12c0.28,0,0.48,0.09,0.6,0.26c0.12,0.18,0.19,0.43,0.2,0.78
				c0.2-0.34,0.4-0.6,0.61-0.78c0.21-0.18,0.49-0.26,0.84-0.26c0.35,0,0.69,0.09,1.02,0.26c0.33,0.18,0.5,0.41,0.5,0.7
				c0,0.2-0.07,0.37-0.21,0.5c-0.14,0.13-0.29,0.2-0.45,0.2c-0.06,0-0.21-0.04-0.45-0.12c-0.23-0.07-0.44-0.11-0.62-0.11
				c-0.24,0-0.45,0.07-0.6,0.19c-0.16,0.13-0.28,0.32-0.36,0.57c-0.08,0.25-0.14,0.56-0.17,0.9
				C75.81,371.29,75.8,371.71,75.8,372.21"/>
			<path class="st7" d="M83.46,371.64H80.2c0.01,0.38,0.08,0.71,0.23,1c0.15,0.29,0.35,0.51,0.59,0.65
				c0.25,0.15,0.52,0.22,0.82,0.22c0.2,0,0.38-0.02,0.55-0.07c0.16-0.04,0.32-0.12,0.48-0.22c0.16-0.1,0.29-0.21,0.43-0.32
				c0.13-0.11,0.3-0.27,0.51-0.46c0.09-0.07,0.21-0.11,0.37-0.11c0.17,0,0.31,0.05,0.42,0.14c0.11,0.09,0.16,0.23,0.16,0.4
				c0,0.15-0.06,0.33-0.17,0.53c-0.12,0.2-0.3,0.4-0.54,0.58c-0.24,0.18-0.54,0.34-0.9,0.46c-0.36,0.12-0.78,0.18-1.24,0.18
				c-1.08,0-1.91-0.3-2.5-0.91c-0.59-0.61-0.89-1.44-0.89-2.49c0-0.49,0.08-0.95,0.22-1.37c0.14-0.42,0.36-0.78,0.64-1.08
				c0.28-0.3,0.62-0.53,1.04-0.69c0.41-0.16,0.87-0.24,1.37-0.24c0.65,0,1.21,0.14,1.68,0.42c0.47,0.27,0.82,0.63,1.05,1.06
				c0.23,0.44,0.35,0.88,0.35,1.33c0,0.42-0.12,0.69-0.36,0.81C84.24,371.58,83.9,371.64,83.46,371.64 M80.2,370.69h3.02
				c-0.04-0.57-0.19-1-0.46-1.28c-0.27-0.29-0.62-0.42-1.05-0.42c-0.42,0-0.76,0.14-1.02,0.43
				C80.42,369.71,80.26,370.13,80.2,370.69"/>
			<path class="st7" d="M90.4,371.64h-3.26c0,0.38,0.08,0.71,0.23,1c0.15,0.29,0.35,0.51,0.59,0.65c0.25,0.15,0.52,0.22,0.82,0.22
				c0.2,0,0.38-0.02,0.54-0.07c0.17-0.04,0.33-0.12,0.48-0.22c0.16-0.1,0.3-0.21,0.43-0.32c0.13-0.11,0.3-0.27,0.51-0.46
				c0.09-0.07,0.21-0.11,0.37-0.11c0.17,0,0.31,0.05,0.42,0.14c0.11,0.09,0.15,0.23,0.15,0.4c0,0.15-0.06,0.33-0.18,0.53
				c-0.11,0.2-0.29,0.4-0.53,0.58c-0.24,0.18-0.54,0.34-0.9,0.46c-0.36,0.12-0.78,0.18-1.24,0.18c-1.07,0-1.9-0.3-2.5-0.91
				c-0.59-0.61-0.89-1.44-0.89-2.49c0-0.49,0.08-0.95,0.22-1.37c0.15-0.42,0.36-0.78,0.64-1.08c0.28-0.3,0.63-0.53,1.04-0.69
				c0.41-0.16,0.87-0.24,1.37-0.24c0.65,0,1.21,0.14,1.68,0.42c0.46,0.27,0.81,0.63,1.04,1.06c0.23,0.44,0.35,0.88,0.35,1.33
				c0,0.42-0.12,0.69-0.36,0.81C91.17,371.58,90.83,371.64,90.4,371.64 M87.14,370.69h3.02c-0.04-0.57-0.2-1-0.46-1.28
				c-0.27-0.29-0.62-0.42-1.06-0.42c-0.42,0-0.76,0.14-1.02,0.43C87.35,369.71,87.19,370.13,87.14,370.69"/>
			<path class="st7" d="M94.05,368.78v0.2c0.31-0.39,0.64-0.67,0.98-0.85c0.33-0.18,0.72-0.27,1.15-0.27c0.51,0,0.99,0.13,1.42,0.4
				c0.43,0.27,0.77,0.65,1.02,1.16c0.25,0.51,0.38,1.11,0.38,1.81c0,0.51-0.07,0.98-0.22,1.42c-0.14,0.43-0.35,0.79-0.6,1.08
				c-0.25,0.29-0.55,0.52-0.89,0.67c-0.35,0.16-0.71,0.23-1.11,0.23c-0.47,0-0.88-0.1-1.2-0.29c-0.32-0.19-0.63-0.47-0.93-0.84v2.5
				c0,0.73-0.27,1.1-0.8,1.1c-0.32,0-0.52-0.09-0.63-0.28c-0.1-0.19-0.15-0.47-0.15-0.83v-7.2c0-0.32,0.07-0.55,0.21-0.71
				c0.14-0.15,0.33-0.23,0.57-0.23c0.24,0,0.43,0.08,0.58,0.24C93.98,368.24,94.05,368.47,94.05,368.78 M97.32,371.2
				c0-0.44-0.07-0.82-0.2-1.13c-0.13-0.32-0.32-0.56-0.56-0.73c-0.24-0.17-0.5-0.25-0.79-0.25c-0.46,0-0.85,0.18-1.16,0.54
				c-0.32,0.36-0.48,0.9-0.48,1.6c0,0.66,0.16,1.18,0.47,1.55c0.31,0.37,0.7,0.55,1.17,0.55c0.28,0,0.53-0.08,0.77-0.24
				c0.24-0.16,0.43-0.4,0.57-0.72C97.25,372.04,97.32,371.65,97.32,371.2"/>
			<path class="st7" d="M100.67,367.06c-0.23,0-0.43-0.07-0.59-0.22c-0.17-0.14-0.25-0.34-0.25-0.6c0-0.24,0.08-0.43,0.25-0.58
				c0.17-0.15,0.36-0.23,0.59-0.23c0.22,0,0.41,0.07,0.57,0.21c0.17,0.14,0.25,0.34,0.25,0.61c0,0.26-0.08,0.46-0.24,0.6
				C101.09,366.99,100.9,367.06,100.67,367.06 M101.5,368.78v4.82c0,0.33-0.08,0.58-0.24,0.75c-0.16,0.17-0.36,0.26-0.61,0.26
				c-0.25,0-0.44-0.09-0.6-0.26c-0.15-0.18-0.23-0.43-0.23-0.75v-4.78c0-0.33,0.08-0.58,0.23-0.74c0.16-0.17,0.35-0.25,0.6-0.25
				c0.25,0,0.44,0.08,0.61,0.25C101.42,368.26,101.5,368.49,101.5,368.78"/>
			<path class="st7" d="M106.87,373.86l-1.47-2.42l-0.91,0.85v1.33c0,0.32-0.08,0.57-0.25,0.74c-0.16,0.17-0.36,0.26-0.58,0.26
				c-0.26,0-0.46-0.08-0.6-0.26c-0.15-0.17-0.22-0.42-0.22-0.75v-7.11c0-0.37,0.07-0.65,0.21-0.84c0.14-0.2,0.35-0.29,0.61-0.29
				c0.26,0,0.46,0.09,0.61,0.26c0.15,0.17,0.23,0.43,0.23,0.77v4.05l1.88-1.97c0.23-0.24,0.41-0.41,0.53-0.5
				c0.12-0.09,0.27-0.13,0.44-0.13c0.21,0,0.38,0.07,0.52,0.2c0.14,0.13,0.21,0.3,0.21,0.5c0,0.24-0.23,0.57-0.68,0.98l-0.89,0.81
				l1.71,2.69c0.12,0.2,0.22,0.35,0.27,0.45c0.05,0.1,0.08,0.21,0.08,0.3c0,0.27-0.07,0.47-0.22,0.63
				c-0.14,0.15-0.34,0.23-0.57,0.23c-0.2,0-0.36-0.05-0.47-0.17C107.21,374.34,107.06,374.14,106.87,373.86"/>
			<path class="st7" d="M110.5,374.62c-0.25,0-0.47-0.08-0.65-0.25c-0.18-0.16-0.28-0.39-0.28-0.68c0-0.25,0.09-0.46,0.26-0.64
				c0.18-0.18,0.39-0.27,0.65-0.27c0.26,0,0.47,0.09,0.66,0.26c0.18,0.18,0.27,0.39,0.27,0.64c0,0.29-0.09,0.52-0.27,0.68
				C110.95,374.54,110.74,374.62,110.5,374.62"/>
			<path class="st7" d="M118.79,372.55c0,0.21-0.06,0.43-0.19,0.67c-0.12,0.24-0.31,0.46-0.57,0.67c-0.25,0.21-0.57,0.39-0.96,0.52
				c-0.39,0.13-0.82,0.2-1.31,0.2c-1.03,0-1.84-0.3-2.41-0.9c-0.58-0.6-0.87-1.41-0.87-2.42c0-0.69,0.13-1.29,0.4-1.82
				c0.26-0.52,0.65-0.93,1.15-1.22c0.5-0.29,1.1-0.43,1.8-0.43c0.43,0,0.83,0.06,1.19,0.19c0.36,0.13,0.66,0.29,0.92,0.49
				c0.25,0.2,0.44,0.41,0.57,0.64c0.13,0.23,0.2,0.44,0.2,0.63c0,0.2-0.07,0.37-0.22,0.51c-0.15,0.14-0.33,0.21-0.54,0.21
				c-0.14,0-0.25-0.04-0.35-0.11c-0.09-0.07-0.2-0.19-0.31-0.35c-0.2-0.31-0.42-0.54-0.64-0.69c-0.22-0.16-0.5-0.23-0.84-0.23
				c-0.49,0-0.89,0.19-1.19,0.58c-0.3,0.38-0.45,0.91-0.45,1.58c0,0.31,0.04,0.6,0.12,0.87c0.08,0.26,0.19,0.49,0.33,0.67
				c0.15,0.18,0.32,0.32,0.53,0.42c0.21,0.1,0.44,0.14,0.68,0.14c0.34,0,0.62-0.08,0.86-0.23c0.24-0.16,0.45-0.39,0.63-0.71
				c0.1-0.19,0.21-0.33,0.33-0.44c0.12-0.1,0.26-0.16,0.43-0.16c0.2,0,0.37,0.08,0.5,0.23
				C118.72,372.21,118.79,372.38,118.79,372.55"/>
			<path class="st7" d="M125.98,371.23c0,0.49-0.08,0.95-0.23,1.38c-0.16,0.42-0.38,0.78-0.68,1.08c-0.29,0.3-0.64,0.53-1.05,0.69
				c-0.41,0.16-0.87,0.24-1.38,0.24c-0.5,0-0.96-0.08-1.36-0.25c-0.4-0.16-0.75-0.4-1.05-0.7c-0.3-0.31-0.52-0.66-0.68-1.08
				c-0.15-0.41-0.23-0.87-0.23-1.37c0-0.51,0.08-0.97,0.23-1.39c0.16-0.42,0.38-0.78,0.67-1.08c0.29-0.3,0.64-0.53,1.05-0.69
				c0.41-0.16,0.87-0.24,1.36-0.24c0.5,0,0.96,0.08,1.38,0.25c0.41,0.16,0.76,0.39,1.06,0.69c0.29,0.31,0.52,0.66,0.67,1.08
				C125.91,370.27,125.98,370.73,125.98,371.23 M124.31,371.23c0-0.68-0.15-1.21-0.45-1.59c-0.3-0.38-0.7-0.57-1.21-0.57
				c-0.33,0-0.61,0.08-0.86,0.25c-0.25,0.17-0.44,0.42-0.57,0.75c-0.13,0.33-0.2,0.72-0.2,1.16c0,0.44,0.07,0.81,0.2,1.14
				c0.13,0.33,0.32,0.58,0.57,0.75c0.25,0.17,0.54,0.26,0.87,0.26c0.5,0,0.91-0.19,1.21-0.57
				C124.16,372.43,124.31,371.9,124.31,371.23"/>
			<path class="st7" d="M132.34,371.35v2.22c0,0.35-0.08,0.61-0.24,0.79c-0.16,0.17-0.37,0.26-0.63,0.26
				c-0.25,0-0.46-0.09-0.61-0.26c-0.16-0.18-0.24-0.44-0.24-0.79v-2.66c0-0.42-0.01-0.75-0.04-0.98c-0.03-0.23-0.11-0.42-0.23-0.57
				c-0.13-0.15-0.33-0.23-0.6-0.23c-0.55,0-0.9,0.19-1.08,0.57c-0.17,0.37-0.26,0.91-0.26,1.61v2.25c0,0.35-0.08,0.61-0.23,0.79
				c-0.16,0.18-0.37,0.26-0.62,0.26c-0.25,0-0.46-0.09-0.62-0.26c-0.16-0.18-0.24-0.44-0.24-0.79v-4.77c0-0.31,0.07-0.55,0.21-0.71
				c0.15-0.17,0.34-0.25,0.57-0.25c0.23,0,0.42,0.08,0.57,0.23c0.15,0.15,0.23,0.36,0.23,0.63v0.16c0.29-0.34,0.6-0.6,0.93-0.76
				c0.33-0.17,0.7-0.25,1.1-0.25c0.42,0,0.78,0.08,1.08,0.25c0.3,0.17,0.55,0.42,0.75,0.76c0.28-0.34,0.58-0.59,0.91-0.76
				c0.32-0.17,0.68-0.25,1.07-0.25c0.45,0,0.85,0.09,1.18,0.27c0.33,0.18,0.57,0.44,0.74,0.77c0.14,0.3,0.21,0.78,0.21,1.42v3.25
				c0,0.35-0.08,0.61-0.24,0.79c-0.16,0.17-0.37,0.26-0.63,0.26c-0.25,0-0.46-0.09-0.62-0.26c-0.16-0.18-0.24-0.44-0.24-0.79v-2.8
				c0-0.36-0.02-0.65-0.04-0.86c-0.03-0.22-0.11-0.4-0.25-0.54c-0.14-0.15-0.34-0.22-0.61-0.22c-0.22,0-0.43,0.07-0.63,0.2
				c-0.2,0.13-0.35,0.31-0.46,0.52C132.41,370.14,132.34,370.64,132.34,371.35"/>
		</g>
		<g>
			<path class="st7" d="M54.74,370.83c0,0,0-0.01,0-0.01C54.74,370.82,54.74,370.82,54.74,370.83z"/>
			<path class="st7" d="M54.82,371.36C54.82,371.36,54.82,371.36,54.82,371.36c-0.03-0.15-0.05-0.3-0.07-0.45
				C54.77,371.06,54.79,371.21,54.82,371.36z"/>
			<path class="st7" d="M55.37,372.91c0-0.01-0.01-0.01-0.01-0.02C55.37,372.89,55.37,372.9,55.37,372.91z"/>
			<path class="st7" d="M55.32,372.8c-0.01-0.03-0.03-0.06-0.04-0.09C55.29,372.75,55.31,372.78,55.32,372.8z"/>
			<path class="st7" d="M54.98,371.96c0.08,0.26,0.18,0.51,0.29,0.75C55.16,372.46,55.06,372.21,54.98,371.96
				C54.98,371.96,54.98,371.96,54.98,371.96z"/>
			<path class="st7" d="M61.19,364.44c0.32,0,0.56,0.03,0.83,0.07l0.08-0.49c0,0-0.75-0.23-1.74-0.15l-0.08-0.27
				c0.31-0.06,0.54-0.34,0.54-0.67c0-0.37-0.3-0.68-0.68-0.68s-0.68,0.3-0.68,0.68c0,0.33,0.23,0.6,0.54,0.67l0.09,0.3
				c-1.05,0.14-1.89,0.55-1.89,0.55l0.15,0.45c0.64-0.21,1.19-0.34,1.69-0.39C60.52,364.46,60.89,364.44,61.19,364.44z"/>
			<path class="st7" d="M55.36,366.92L55.36,366.92c0.03-0.04,0.05-0.07,0.08-0.1l-0.2-0.15l-0.31-0.23
				c-0.02,0.02-0.51,0.48-0.9,1.32c-0.02-0.03-0.04-0.05-0.06-0.08c-0.12-0.13-0.28-0.19-0.49-0.19c0,0-0.01,0-0.01,0
				c-0.13,0-0.22-0.04-0.27-0.09c0.06-0.07,0.09-0.17,0.09-0.27c0-0.24-0.19-0.43-0.43-0.43c-0.24,0-0.43,0.19-0.43,0.43
				s0.19,0.43,0.43,0.43c0.04,0,0.07-0.01,0.11-0.01c0.11,0.12,0.27,0.22,0.52,0.21c0.13,0,0.22,0.03,0.28,0.1
				c0.07,0.08,0.1,0.19,0.1,0.27c0,0,0,0,0,0c-0.28,0.76-0.2,1.72-0.2,1.72l0.68,0.03c0.01-0.35,0.06-0.95,0.24-1.43
				C54.92,367.53,55.34,366.94,55.36,366.92z"/>
			<path class="st7" d="M67.11,365.01c-0.24,0-0.43,0.19-0.43,0.43c0,0.04,0.01,0.07,0.01,0.11c-0.12,0.11-0.22,0.28-0.22,0.52
				c0,0.13-0.03,0.22-0.1,0.28c-0.05,0.05-0.12,0.07-0.19,0.09c-0.51-0.71-1.13-1.14-1.13-1.14l-0.49,0.52
				c0.37,0.33,0.75,0.75,1.11,1.28c0.25,0.36,0.51,0.83,0.73,1.29l0.66-0.31c0,0-0.3-0.74-0.72-1.41c0.07-0.03,0.15-0.07,0.21-0.12
				c0.13-0.12,0.19-0.28,0.19-0.49c0-0.13,0.04-0.22,0.1-0.28c0.07,0.06,0.17,0.09,0.26,0.09c0.24,0,0.43-0.19,0.43-0.43
				C67.54,365.2,67.35,365.01,67.11,365.01z"/>
			<path class="st7" d="M65.4,370.92c-0.91,0.44-2.4,1.02-4.36,1.3c-0.77,0.11-1.52,0.15-2.2,0.15c-0.89,0-1.68-0.07-2.29-0.14
				c-0.69-0.09-1.23-0.19-1.56-0.27c0.08,0.25,0.18,0.5,0.29,0.75c0,0.01,0,0.01,0.01,0.02c0.01,0.03,0.03,0.06,0.04,0.09
				c0.01,0.03,0.03,0.06,0.04,0.08c0,0.01,0.01,0.02,0.01,0.02c0.19,0.37,0.43,0.7,0.69,1c0.93,1.01,1.87,1.17,1.88,1.17l0.01,0
				l0.01,0c0.01,0,0.84,0.27,2.12,0.27c1.25,0,2.48-0.25,3.65-0.75c0.87-0.44,1.69-1.12,2.09-1.72c0.31-0.46,0.54-0.96,0.67-1.47
				c0.07-0.27,0.13-0.71,0.09-1.17C66.35,370.41,65.94,370.66,65.4,370.92z"/>
			<path class="st7" d="M55.65,367.13c-0.03,0.04-0.42,0.59-0.73,1.45c-0.23,0.64-0.22,1.57-0.22,1.58v0c0,0.22,0.01,0.44,0.04,0.65
				c0,0,0,0.01,0,0.01c0,0.03,0.01,0.05,0.01,0.08c0.02,0.15,0.04,0.3,0.08,0.45c0.45,0.11,3.14,0.74,6.14,0.32
				c1.88-0.26,3.31-0.82,4.18-1.24c0.72-0.35,1.18-0.67,1.36-0.8c-0.18-0.66-0.67-1.7-1.12-2.34c-1.29-1.84-2.68-2.31-3.39-2.43
				c-0.27-0.04-0.49-0.07-0.8-0.07c-0.29,0-0.64,0.02-1.12,0.07c-0.48,0.05-1.01,0.17-1.63,0.38c-0.87,0.29-1.65,0.75-2.27,1.32
				l-0.02,0.02C56.06,366.68,55.87,366.85,55.65,367.13z M63.54,366.7c0.62,0,1.12,0.5,1.12,1.12s-0.5,1.12-1.12,1.12
				c-0.62,0-1.12-0.5-1.12-1.12S62.92,366.7,63.54,366.7z M58.24,366.66c1,0,1.81,0.81,1.81,1.81s-0.81,1.81-1.81,1.81
				c-1,0-1.81-0.81-1.81-1.81S57.24,366.66,58.24,366.66z"/>
		</g>
	</g>
</g>
</svg>
